<svg viewBox="0 0 558 85">
	<g fill="none" fill-rule="evenodd">
		<path d="M84.5 85C64.064 85 55 65.972 55 42.5S62.593 0 84.5 0 114 19.028 114 42.5 104.936 85 84.5 85zm-2.034-42.208c0-5.059-4.62-7.302-10.318-7.302-5.699 0-10.318 1.88-10.318 7.302 0 5.423 4.62 7.303 10.318 7.303 5.698 0 10.318-2.244 10.318-7.303zm24.995 0c0-5.059-4.62-7.302-10.318-7.302-5.698 0-10.318 1.88-10.318 7.302 0 5.423 4.62 7.303 10.318 7.303 5.698 0 10.318-2.244 10.318-7.303z" fill="#FBADAD" fill-rule="nonzero"/>
		<path d="M29.5 85C9.064 85 0 65.972 0 42.5S7.593 0 29.5 0 59 19.028 59 42.5 49.936 85 29.5 85zm-2.034-42.208c0-5.059-4.62-7.302-10.318-7.302-5.699 0-10.318 1.88-10.318 7.302 0 5.423 4.62 7.303 10.318 7.303 5.698 0 10.318-2.244 10.318-7.303zm24.995 0c0-5.059-4.62-7.302-10.318-7.302-5.698 0-10.318 1.88-10.318 7.302 0 5.423 4.62 7.303 10.318 7.303 5.698 0 10.318-2.244 10.318-7.303z" fill="#E2EB5B" fill-rule="nonzero"/>
		<path d="M139.5 85C119.064 85 110 65.972 110 42.5S117.593 0 139.5 0 169 19.028 169 42.5 159.936 85 139.5 85zm-2.034-42.208c0-5.059-4.62-7.302-10.318-7.302-5.699 0-10.318 1.88-10.318 7.302 0 5.423 4.62 7.303 10.318 7.303 5.698 0 10.318-2.244 10.318-7.303zm24.995 0c0-5.059-4.62-7.302-10.318-7.302-5.698 0-10.318 1.88-10.318 7.302 0 5.423 4.62 7.303 10.318 7.303 5.698 0 10.318-2.244 10.318-7.303z" fill="#40F180" fill-rule="nonzero"/>
		<path d="M205.871 23.477h-24.395V1.7h76.874v21.777h-24.395V85h-28.084V23.477zm95.438 40.579h-7.616V85h-28.084V1.7h40.103c7.695 0 14.399 1.27 20.111 3.808 5.712 2.539 10.115 6.188 13.209 10.948 3.094 4.76 4.641 10.313 4.641 16.66 0 5.95-1.349 11.146-4.046 15.589s-6.585 7.973-11.662 10.591L345.458 85H315.47l-14.161-20.944zm14.042-30.94c0-3.094-.952-5.494-2.856-7.2-1.904-1.705-4.76-2.558-8.568-2.558h-10.234v19.516h10.234c3.808 0 6.664-.853 8.568-2.559 1.904-1.705 2.856-4.105 2.856-7.199zM354.264 1.7h28.084V85h-28.084V1.7zm108.29 39.746c4.919 1.825 8.727 4.482 11.424 7.973 2.697 3.49 4.046 7.695 4.046 12.614 0 7.299-3.015 12.951-9.044 16.957-6.03 4.007-14.756 6.01-26.18 6.01h-46.886V1.7h44.506c11.107 0 19.496 1.983 25.168 5.95 5.673 3.967 8.509 9.242 8.509 15.827 0 3.887-.972 7.378-2.915 10.472-1.944 3.094-4.82 5.593-8.628 7.497zm-39.032-20.111v12.376h13.09c6.109 0 9.163-2.063 9.163-6.188s-3.054-6.188-9.163-6.188h-13.09zm16.898 44.03c6.188 0 9.282-2.182 9.282-6.545 0-4.363-3.094-6.545-9.282-6.545h-16.898v13.09h16.898zm116.739-1.547V85h-69.258V1.7h67.711v21.182h-40.103v9.758h35.224v20.23h-35.224v10.948h41.65z" fill="#717EF0"/>
	</g>
</svg>
