<?xml version="1.0" encoding="UTF-8"?>
<svg width="558px" height="85px" viewBox="0 0 558 85" version="1.1" xmlns="http://www.w3.org/2000/svg" xmlns:xlink="http://www.w3.org/1999/xlink">
    <!-- Generator: Sketch 51.1 (57501) - http://www.bohemiancoding.com/sketch -->
    <title>Group</title>
    <desc>Created with Sketch.</desc>
    <defs></defs>
    <g id="Page-1" stroke="none" stroke-width="1" fill="none" fill-rule="evenodd">
        <g id="Group">
            <path d="M84.5,85 C64.0643473,85 55,65.9721019 55,42.5 C55,19.0278981 62.5929803,4.15093694e-15 84.5,0 C106.40702,0 114,19.0278981 114,42.5 C114,65.9721019 104.935653,85 84.5,85 Z M82.4655172,42.7920962 C82.4655172,37.7334717 77.8461104,35.4896907 72.1477833,35.4896907 C66.4494561,35.4896907 61.8300493,37.3692508 61.8300493,42.7920962 C61.8300493,48.2149417 66.4494561,50.0945017 72.1477833,50.0945017 C77.8461104,50.0945017 82.4655172,47.8507207 82.4655172,42.7920962 Z M107.460591,42.7920962 C107.460591,37.7334717 102.841184,35.4896907 97.1428571,35.4896907 C91.44453,35.4896907 86.8251232,37.3692508 86.8251232,42.7920962 C86.8251232,48.2149417 91.44453,50.0945017 97.1428571,50.0945017 C102.841184,50.0945017 107.460591,47.8507207 107.460591,42.7920962 Z" id="Combined-Shape" fill="#FBADAD" fill-rule="nonzero"></path>
            <path d="M29.5,85 C9.06434729,85 0,65.9721019 0,42.5 C0,19.0278981 7.5929803,4.15093694e-15 29.5,0 C51.4070197,0 59,19.0278981 59,42.5 C59,65.9721019 49.9356527,85 29.5,85 Z M27.4655172,42.7920962 C27.4655172,37.7334717 22.8461104,35.4896907 17.1477833,35.4896907 C11.4494561,35.4896907 6.83004926,37.3692508 6.83004926,42.7920962 C6.83004926,48.2149417 11.4494561,50.0945017 17.1477833,50.0945017 C22.8461104,50.0945017 27.4655172,47.8507207 27.4655172,42.7920962 Z M52.4605911,42.7920962 C52.4605911,37.7334717 47.8411843,35.4896907 42.1428571,35.4896907 C36.44453,35.4896907 31.8251232,37.3692508 31.8251232,42.7920962 C31.8251232,48.2149417 36.44453,50.0945017 42.1428571,50.0945017 C47.8411843,50.0945017 52.4605911,47.8507207 52.4605911,42.7920962 Z" id="Combined-Shape" fill="#E2EB5B" fill-rule="nonzero"></path>
            <path d="M139.5,85 C119.064347,85 110,65.9721019 110,42.5 C110,19.0278981 117.59298,4.15093694e-15 139.5,0 C161.40702,0 169,19.0278981 169,42.5 C169,65.9721019 159.935653,85 139.5,85 Z M137.465517,42.7920962 C137.465517,37.7334717 132.84611,35.4896907 127.147783,35.4896907 C121.449456,35.4896907 116.830049,37.3692508 116.830049,42.7920962 C116.830049,48.2149417 121.449456,50.0945017 127.147783,50.0945017 C132.84611,50.0945017 137.465517,47.8507207 137.465517,42.7920962 Z M162.460591,42.7920962 C162.460591,37.7334717 157.841184,35.4896907 152.142857,35.4896907 C146.44453,35.4896907 141.825123,37.3692508 141.825123,42.7920962 C141.825123,48.2149417 146.44453,50.0945017 152.142857,50.0945017 C157.841184,50.0945017 162.460591,47.8507207 162.460591,42.7920962 Z" id="Combined-Shape" fill="#40F180" fill-rule="nonzero"></path>
            <path d="M205.871,23.477 L181.476,23.477 L181.476,1.7 L258.35,1.7 L258.35,23.477 L233.955,23.477 L233.955,85 L205.871,85 L205.871,23.477 Z M301.309,64.056 L293.693,64.056 L293.693,85 L265.609,85 L265.609,1.7 L305.712,1.7 C313.407372,1.7 320.110971,2.96932064 325.823,5.508 C331.535029,8.04667936 335.937985,11.6959762 339.032,16.456 C342.126015,21.2160238 343.673,26.7693016 343.673,33.116 C343.673,39.0660297 342.324347,44.2623111 339.627,48.705 C336.929653,53.1476889 333.042359,56.6779869 327.965,59.296 L345.458,85 L315.47,85 L301.309,64.056 Z M315.351,33.116 C315.351,30.0219845 314.39901,27.6221752 312.495,25.9165 C310.59099,24.2108248 307.735019,23.358 303.927,23.358 L293.693,23.358 L293.693,42.874 L303.927,42.874 C307.735019,42.874 310.59099,42.0211752 312.495,40.3155 C314.39901,38.6098248 315.351,36.2100155 315.351,33.116 Z M354.264,1.7 L382.348,1.7 L382.348,85 L354.264,85 L354.264,1.7 Z M462.554,41.446 C467.472691,43.2706758 471.280653,45.9283159 473.978,49.419 C476.675347,52.9096841 478.024,57.1143087 478.024,62.033 C478.024,69.3317032 475.009363,74.9841466 468.98,78.9905 C462.950637,82.9968534 454.224057,85 442.8,85 L395.914,85 L395.914,1.7 L440.42,1.7 C451.526722,1.7 459.916138,3.6833135 465.5885,7.65 C471.260862,11.6166865 474.097,16.8923004 474.097,23.477 C474.097,27.3643528 473.125176,30.8549845 471.1815,33.949 C469.237824,37.0430155 466.362019,39.5419905 462.554,41.446 Z M423.522,21.335 L423.522,33.711 L436.612,33.711 C442.720697,33.711 445.775,31.648354 445.775,27.523 C445.775,23.397646 442.720697,21.335 436.612,21.335 L423.522,21.335 Z M440.42,65.365 C446.608031,65.365 449.702,63.1833552 449.702,58.82 C449.702,54.4566448 446.608031,52.275 440.42,52.275 L423.522,52.275 L423.522,65.365 L440.42,65.365 Z M557.159,63.818 L557.159,85 L487.901,85 L487.901,1.7 L555.612,1.7 L555.612,22.882 L515.509,22.882 L515.509,32.64 L550.733,32.64 L550.733,52.87 L515.509,52.87 L515.509,63.818 L557.159,63.818 Z" id="TRIBE" fill="#717EF0"></path>
        </g>
    </g>
</svg>